<mxfile host="app.diagrams.net" modified="2021-08-05T02:36:09.976Z" agent="5.0 (Windows)" etag="xwYPk72MbFV4EhKd3Lkr" version="14.7.2" type="github">
  <diagram id="0" name="Page-1">
    <mxGraphModel dx="942" dy="572" grid="1" gridSize="10" guides="1" tooltips="1" connect="1" arrows="1" fold="0" page="1" pageScale="1" pageWidth="826" pageHeight="1169" background="none" math="1" shadow="0">
      <root>
        <mxCell id="0" />
        <mxCell id="1" parent="0" />
      </root>
    </mxGraphModel>
  </diagram>
</mxfile>
